<?xml version="1.0" standalone="no"?>
<svg xmlns="http://www.w3.org/2000/svg" xmlns:xlink="http://www.w3.org/1999/xlink" width="910pt" height="310pt" viewBox="0.00 0.00 909.7 310.4">
<g id="graph0" class="graph" transform="translate(4,306.3999938964844) scale(1)" data-name="G">

<polygon fill="white" stroke="none" points="-4,4 -4,-306.4 905.7,-306.4 905.7,4 -4,4"/>
<!-- frodo -->
<g id="node1" class="node" pointer-events="visible" data-name="frodo">

<ellipse fill="none" stroke="rgb(255, 0, 0)" cx="324.95" cy="-284.4" rx="63.74" ry="18"/>
<text text-anchor="middle" x="324.95" y="-280.2" font-family="Times,serif" font-size="14.00">USER#Frodo</text>
</g>
<!-- sam -->
<g id="node2" class="node" pointer-events="visible" data-name="sam">

<ellipse fill="none" stroke="rgb(255, 0, 0)" cx="392.95" cy="-195.6" rx="75.34" ry="18"/>
<text text-anchor="middle" x="392.95" y="-191.4" font-family="Times,serif" font-size="14.00">USER#Samwise</text>
</g>
<!-- frodo&#45;&gt;sam -->
<g id="edge1" class="edge" data-name="frodo-&gt;sam">

<path fill="none" stroke="rgb(0, 128, 0)" d="M338.06,-266.66C347.88,-254.14 361.48,-236.77 372.69,-222.46"/>
<polygon fill="Green" stroke="Green" points="375.3,-224.8 378.72,-214.77 369.79,-220.49 375.3,-224.8"/>
<text text-anchor="middle" x="439.23" y="-235.8" font-family="Times,serif" font-size="14.00">FRIEND-USER#Samwise</text>
</g>
<!-- gandalf -->
<g id="node3" class="node" pointer-events="visible" data-name="gandalf">

<ellipse fill="none" stroke="rgb(255, 0, 0)" cx="268.95" cy="-106.8" rx="71.8" ry="18"/>
<text text-anchor="middle" x="268.95" y="-102.6" font-family="Times,serif" font-size="14.00">USER#Gandalf</text>
</g>
<!-- frodo&#45;&gt;gandalf -->
<g id="edge2" class="edge" data-name="frodo-&gt;gandalf">

<path fill="none" stroke="rgb(0, 128, 0)" d="M319.48,-266.24C309.82,-235.95 289.66,-172.72 277.93,-135.96"/>
<polygon fill="Green" stroke="Green" points="281.28,-134.93 274.91,-126.47 274.61,-137.06 281.28,-134.93"/>
<text text-anchor="middle" x="202.9" y="-129.23" font-family="Times,serif" font-size="14.00">FRIEND-USER#Gandalf</text>
</g>
<!-- gondor -->
<g id="node4" class="node" pointer-events="visible" data-name="gondor">

<ellipse fill="none" stroke="rgb(0, 0, 255)" cx="75.95" cy="-18" rx="75.9" ry="18"/>
<text text-anchor="middle" x="75.95" y="-13.8" font-family="Times,serif" font-size="14.00">PLACE#Gondor</text>
</g>
<!-- frodo&#45;&gt;gondor -->
<g id="edge4" class="edge" data-name="frodo-&gt;gondor">

<path fill="none" stroke="rgb(128, 0, 128)" d="M291.54,-268.66C248.88,-248.61 174.5,-209.48 123.75,-159.6 90.33,-126.76 80.1,-115.76 66.95,-70.8 64.74,-63.24 65.04,-54.88 66.42,-47.13"/>
<polygon fill="Purple" stroke="Purple" points="69.8,-48.03 68.78,-37.49 63,-46.37 69.8,-48.03"/>
<text text-anchor="middle" x="200.56" y="-147" font-family="Times,serif" font-size="14.00">VISITED-PLACE#Gondor</text>
</g>
<!-- TheShire -->
<g id="node5" class="node" pointer-events="visible" data-name="TheShire">

<ellipse fill="none" stroke="rgb(0, 0, 255)" cx="599.95" cy="-18" rx="81.69" ry="18"/>
<text text-anchor="middle" x="599.95" y="-13.8" font-family="Times,serif" font-size="14.00">PLACE#TheShire</text>
</g>
<!-- frodo&#45;&gt;TheShire -->
<g id="edge5" class="edge" data-name="frodo-&gt;TheShire">

<path fill="none" stroke="rgb(128, 0, 128)" d="M388.5,-282.55C488.24,-277.27 678,-250.31 753.95,-124.8 780.11,-81.57 717.42,-51.78 664.32,-35.08"/>
<polygon fill="Purple" stroke="Purple" points="665.55,-31.79 654.96,-32.25 663.52,-38.49 665.55,-31.79"/>
<text text-anchor="middle" x="820.83" y="-147" font-family="Times,serif" font-size="14.00">VISITED-PLACE#TheShire</text>
</g>
<!-- sam&#45;&gt;gandalf -->
<g id="edge3" class="edge" data-name="sam-&gt;gandalf">

<path fill="none" stroke="rgb(0, 128, 0)" d="M369.34,-178.07C350.2,-164.68 323.03,-145.65 301.78,-130.78"/>
<polygon fill="Green" stroke="Green" points="303.92,-128 293.72,-125.14 299.9,-133.74 303.92,-128"/>
<text text-anchor="middle" x="364.03" y="-128.47" font-family="Times,serif" font-size="14.00">FRIEND-USER#Gandalf</text>
</g>
<!-- sam&#45;&gt;gondor -->
<g id="edge6" class="edge" data-name="sam-&gt;gondor">

<path fill="none" stroke="rgb(128, 0, 128)" d="M395.52,-177.31C398.71,-156.31 404.51,-119.84 410.75,-88.8 413.81,-73.53 425.39,-65.57 414.95,-54 398.27,-35.5 256.84,-26.2 162,-21.99"/>
<polygon fill="Purple" stroke="Purple" points="162.33,-18.5 152.19,-21.57 162.03,-25.5 162.33,-18.5"/>
<text text-anchor="middle" x="486.56" y="-102.6" font-family="Times,serif" font-size="14.00">VISITED-PLACE#Gondor</text>
</g>
<!-- sam&#45;&gt;TheShire -->
<g id="edge7" class="edge" data-name="sam-&gt;TheShire">

<path fill="none" stroke="rgb(128, 0, 128)" d="M452.85,-184.47C490.71,-175.1 537.99,-157.46 567.95,-124.8 587.4,-103.61 595.04,-70.97 598.04,-47.55"/>
<polygon fill="Purple" stroke="Purple" points="601.5,-48.06 599.06,-37.75 594.54,-47.34 601.5,-48.06"/>
<text text-anchor="middle" x="668.83" y="-102.6" font-family="Times,serif" font-size="14.00">VISITED-PLACE#TheShire</text>
</g>
<!-- gandalf&#45;&gt;gondor -->
<g id="edge8" class="edge" data-name="gandalf-&gt;gondor">

<path fill="none" stroke="rgb(128, 0, 128)" d="M199.08,-102.2C150.76,-98.09 92.45,-89.33 76.75,-70.8 71.37,-64.46 69.77,-55.94 69.93,-47.65"/>
<polygon fill="Purple" stroke="Purple" points="73.4,-48.14 70.94,-37.83 66.43,-47.42 73.4,-48.14"/>
<text text-anchor="middle" x="153.56" y="-58.2" font-family="Times,serif" font-size="14.00">VISITED-PLACE#Gondor</text>
</g>
<!-- gandalf&#45;&gt;TheShire -->
<g id="edge9" class="edge" data-name="gandalf-&gt;TheShire">

<path fill="none" stroke="rgb(128, 0, 128)" d="M307.78,-91.33C338.94,-80.09 383.97,-64.67 424.2,-54 457.01,-45.3 493.77,-37.65 525.16,-31.75"/>
<polygon fill="Purple" stroke="Purple" points="525.79,-35.19 534.98,-29.93 524.51,-28.31 525.79,-35.19"/>
<text text-anchor="middle" x="504.83" y="-58.2" font-family="Times,serif" font-size="14.00">VISITED-PLACE#TheShire</text>
</g>
</g>
</svg>