<?xml version="1.0" standalone="no"?>
<svg xmlns="http://www.w3.org/2000/svg" xmlns:xlink="http://www.w3.org/1999/xlink" width="354pt" height="44pt" viewBox="0.00 0.00 354.46 44">
<g id="graph0" class="graph" transform="translate(4,40) scale(1)" data-name="G">

<polygon fill="white" stroke="none" points="-4,4 -4,-40 350.46,-40 350.46,4 -4,4"/>
<!-- userA -->
<g id="node1" class="node" pointer-events="visible" data-name="userA">

<ellipse fill="none" stroke="black" cx="173.23" cy="-18" rx="34.2" ry="18"/>
<text text-anchor="middle" x="173.23" y="-13.8" font-family="Times,serif" font-size="14.00">userA</text>
</g>
<!-- userB -->
<g id="node2" class="node" pointer-events="visible" data-name="userB">

<ellipse fill="none" stroke="black" cx="312.9" cy="-18" rx="33.63" ry="18"/>
<text text-anchor="middle" x="312.9" y="-13.8" font-family="Times,serif" font-size="14.00">userB</text>
</g>
<!-- userA&#45;&gt;userB -->
<g id="edge1" class="edge" data-name="userA-&gt;userB">

<path fill="none" stroke="black" d="M207.76,-18C225.77,-18 248.03,-18 267.43,-18"/>
<polygon fill="black" stroke="black" points="267.26,-21.5 277.26,-18 267.26,-14.5 267.26,-21.5"/>
<text text-anchor="middle" x="250.23" y="-5.4" font-family="Times,serif" font-size="14.00">FRIEND</text>
</g>
<!-- userC -->
<g id="node3" class="node" pointer-events="visible" data-name="userC">

<ellipse fill="none" stroke="black" cx="33.57" cy="-18" rx="33.63" ry="18"/>
<text text-anchor="middle" x="33.57" y="-13.8" font-family="Times,serif" font-size="14.00">userC</text>
</g>
<!-- userA&#45;&gt;userC -->
<g id="edge2" class="edge" data-name="userA-&gt;userC">

<path fill="none" stroke="black" d="M138.71,-18C120.7,-18 98.43,-18 79.03,-18"/>
<polygon fill="black" stroke="black" points="79.21,-14.5 69.21,-18 79.21,-21.5 79.21,-14.5"/>
<text text-anchor="middle" x="108.87" y="-5.4" font-family="Times,serif" font-size="14.00">FRIEND</text>
</g>
</g>
</svg>