<?xml version="1.0" standalone="no"?>
<svg xmlns="http://www.w3.org/2000/svg" xmlns:xlink="http://www.w3.org/1999/xlink" width="350pt" height="316pt" viewBox="0.00 0.00 349.72 316.00">
<g id="graph0" class="graph" transform="translate(4,312) scale(1)" data-name="G">

<polygon fill="white" stroke="none" points="-4,4 -4,-312 345.72,-312 345.72,4 -4,4"/>
<!-- USER -->
<g id="node1" class="node" pointer-events="visible" data-name="USER">

<ellipse fill="none" stroke="black" cx="185.72" cy="-166" rx="35.94" ry="18"/>
<text text-anchor="middle" x="185.72" y="-161.8" font-family="Times,serif" font-size="14.00">USER</text>
<polygon fill="none" stroke="black" points="3,-283 3,-305 80,-305 80,-283 3,-283"/>
<text text-anchor="start" x="5.73" y="-289.4" font-family="Times,serif" font-size="14.00">PartitionKey</text>
<polygon fill="none" stroke="black" points="82,-283 82,-305 147,-305 147,-283 82,-283"/>
<text text-anchor="start" x="96.61" y="-289.4" font-family="Times,serif" font-size="14.00">USER</text>
<polygon fill="none" stroke="black" points="3,-259 3,-281 80,-281 80,-259 3,-259"/>
<text text-anchor="start" x="18.17" y="-265.4" font-family="Times,serif" font-size="14.00">SortKey</text>
<polygon fill="none" stroke="black" points="82,-259 82,-281 147,-281 147,-259 82,-259"/>
<polygon fill="none" stroke="black" points="3,-235 3,-257 80,-257 80,-235 3,-235"/>
<text text-anchor="start" x="14.68" y="-241.4" font-family="Times,serif" font-size="14.00">username</text>
<polygon fill="none" stroke="black" points="82,-235 82,-257 147,-257 147,-235 82,-235"/>
<text text-anchor="start" x="84.57" y="-241.4" font-family="Times,serif" font-size="14.00">ringBearer</text>
<polygon fill="none" stroke="black" points="3,-211 3,-233 80,-233 80,-211 3,-211"/>
<text text-anchor="start" x="13.51" y="-217.4" font-family="Times,serif" font-size="14.00">firstName</text>
<polygon fill="none" stroke="black" points="82,-211 82,-233 147,-233 147,-211 82,-211"/>
<text text-anchor="start" x="97.78" y="-217.4" font-family="Times,serif" font-size="14.00">Frodo</text>
<polygon fill="none" stroke="black" points="3,-187 3,-209 80,-209 80,-187 3,-187"/>
<text text-anchor="start" x="15.07" y="-193.4" font-family="Times,serif" font-size="14.00">lastName</text>
<polygon fill="none" stroke="black" points="82,-187 82,-209 147,-209 147,-187 82,-187"/>
<text text-anchor="start" x="91.56" y="-193.4" font-family="Times,serif" font-size="14.00">Baggins</text>
<polygon fill="none" stroke="black" points="0,-184 0,-308 150,-308 150,-184 0,-184"/>
</g>
<!-- n1 -->
<g id="node2" class="node" pointer-events="visible" data-name="n1">

</g>
<!-- USER&#45;&gt;n1 -->
<g id="edge1" class="edge" data-name="USER-&gt;n1">

<path fill="none" stroke="black" d="M185.72,-147.68C185.72,-122.85 185.72,-76.86 185.72,-47.12"/>
<polygon fill="black" stroke="black" points="189.22,-47.36 185.72,-37.36 182.22,-47.36 189.22,-47.36"/>
<polygon fill="none" stroke="black" points="188.72,-105 188.72,-127 265.72,-127 265.72,-105 188.72,-105"/>
<text text-anchor="start" x="191.45" y="-111.4" font-family="Times,serif" font-size="14.00">PartitionKey</text>
<polygon fill="none" stroke="black" points="267.72,-105 267.72,-127 338.72,-127 338.72,-105 267.72,-105"/>
<text text-anchor="start" x="285.33" y="-111.4" font-family="Times,serif" font-size="14.00">USER</text>
<polygon fill="none" stroke="black" points="188.72,-81 188.72,-103 265.72,-103 265.72,-81 188.72,-81"/>
<text text-anchor="start" x="203.89" y="-87.4" font-family="Times,serif" font-size="14.00">SortKey</text>
<polygon fill="none" stroke="black" points="267.72,-81 267.72,-103 338.72,-103 338.72,-81 267.72,-81"/>
<text text-anchor="start" x="277.94" y="-87.4" font-family="Times,serif" font-size="14.00">FRIEND</text>
<polygon fill="none" stroke="black" points="188.72,-57 188.72,-79 265.72,-79 265.72,-57 188.72,-57"/>
<text text-anchor="start" x="193.8" y="-63.4" font-family="Times,serif" font-size="14.00">createdDate</text>
<polygon fill="none" stroke="black" points="267.72,-57 267.72,-79 338.72,-79 338.72,-57 267.72,-57"/>
<text text-anchor="start" x="270.56" y="-63.4" font-family="Times,serif" font-size="14.00">2023-05-01</text>
<polygon fill="none" stroke="black" points="185.72,-54 185.72,-130 341.72,-130 341.72,-54 185.72,-54"/>
</g>
</g>
</svg>